<svg xmlns="http://www.w3.org/2000/svg" xmlns:xlink="http://www.w3.org/1999/xlink" width="1037.175" height="158.849" viewBox="0 0 1037.175 158.849">
  <defs>
    <linearGradient id="linear-gradient" x1="1" y1="0.5" x2="-0.018" y2="0.5" gradientUnits="objectBoundingBox">
      <stop offset="0" stop-color="#573de8"/>
      <stop offset="1" stop-color="#f457b8"/>
    </linearGradient>
  </defs>
  <path id="Intersection_1" data-name="Intersection 1" d="M354.209,183.837a1.885,1.885,0,0,1-.35-.613,3.118,3.118,0,0,1-.175-1.138,16.99,16.99,0,0,1,1.925-7.438q1.925-3.937,6.3-11.462,2.449-3.85,4.812-7.962a46.015,46.015,0,0,0,3.587-7.612q-4.2-12.425-5.25-14.875l-8.575-28.35q-1.226-3.5-2.363-7.613t-2.012-7.262l-3.85-12.95q-1.05-1.925-3.15-10.15-2.45-8.05-2.625-8.574a12.119,12.119,0,0,1-.525-2.8.785.785,0,0,1,.263-.7,1.936,1.936,0,0,1,.612-.263,2.87,2.87,0,0,1,.7-.087h12.25a3.037,3.037,0,0,1,2.1.525,2.005,2.005,0,0,1,.613,1.138,3.207,3.207,0,0,0,.263.962q.875,1.575,2.975,10.676,1.4,5.075,5.251,16.975t6.649,19.949q2.276,5.951,2.451,6.826,1.049,3.15,2.1,5.774l1.925,5.775q2.1-5.6,5.425-15.75t4.375-14.525l4.375-11.2q4.725-12.076,5.075-13.126a78.846,78.846,0,0,0,3.15-8.4l1.75-4.725q.35-1.4.875-1.575a3.323,3.323,0,0,1,1.75.175,10.218,10.218,0,0,0,3.5.35h3.15q.875,0,.875.35a2.161,2.161,0,0,1-.175.787q-.176.437-.35.788-.525,1.05-2.275,5.338a51.67,51.67,0,0,1-3.326,6.912q-2.449,3.676-12.074,32.725l-2.625,7.35q-5.6,17.5-6.475,19.95l-2.275,7.349-1.925,5.951q-4.55,14.349-7.875,23.712t-7,17.412q-.875,1.75-8.924,1.75A26.448,26.448,0,0,1,354.209,183.837Zm640.85-8.925a1.184,1.184,0,0,1-.35-.875l.35-1.925q.7-1.751,1.312-3.063t1.138-2.362q.35-1.75,1.75-1.4,2.276.876,4.026,1.751a33,33,0,0,0,3.15,1.4,95.149,95.149,0,0,0,10.062,4.288,26.263,26.263,0,0,0,8.662,1.488q9.975,0,15.75-7.175t5.95-18.55v-2.8q-9.624,3.675-22.75,3.675-12.424,0-20.475-6.475A36.327,36.327,0,0,1,992,126a68.573,68.573,0,0,1-3.587-22.487,98.158,98.158,0,0,1,2.45-20.213,49.872,49.872,0,0,1,10.325-21.175q7.876-9.712,22.925-9.712,13.825,0,23.275,6.125V56.262a3.657,3.657,0,0,1,.263-1.575,1.666,1.666,0,0,1,1.312-.7,21.459,21.459,0,0,1,3.326-.35,24.816,24.816,0,0,1,3.325.175,14.956,14.956,0,0,0,1.575.175h.7a1.736,1.736,0,0,1,1.925,2.1q0,1.925-.7,13.825l-.875,17.675q-.175,2.975,0,8.138t.175,9.712l.175,5.6v25.9q0,23.275-8.4,35.088t-27.651,11.813A47.064,47.064,0,0,1,995.06,174.911Zm7.7-100.45q-7.875,10.5-7.875,28.875a51.553,51.553,0,0,0,3.587,19.076,36.907,36.907,0,0,0,10.063,14.7,21.639,21.639,0,0,0,14.525,5.6,23.485,23.485,0,0,0,13.3-4.375,31.431,31.431,0,0,0,10.5-12.6v-.7q0-6.125.175-8.924.174-1.4.175-9.8l-.35-15.051.35-17.674a17.656,17.656,0,0,0-9.013-7.263,35.462,35.462,0,0,0-13.037-2.362Q1010.635,63.961,1002.759,74.462ZM670.26,181.036q-7-2.624-8.488-3.937t-6.562-6.387q-1.05-1.05-.526-1.4a7.424,7.424,0,0,1,1.225-1.925l2.275-2.8q.875-1.226,3.15-4.026a1.682,1.682,0,0,1,1.225-.525,4.007,4.007,0,0,1,1.925.787,12.56,12.56,0,0,1,2.1,1.662q.176.175,2.013,1.663a16.811,16.811,0,0,0,5.337,2.624,24.8,24.8,0,0,0,7.7,1.138q10.674,0,15.312-6.125t4.638-17.675a25.381,25.381,0,0,1-8.05,2.713,56.236,56.236,0,0,1-10.5.962q-15.575,0-23.8-13.3t-8.225-33.425A100.751,100.751,0,0,1,653.2,82.074,50.549,50.549,0,0,1,662.3,61.6q6.912-9.362,19.688-9.363,12.074,0,20.3,6.125V56.086a4.2,4.2,0,0,1,.263-1.75q.262-.525,1.312-.526l15.225.526,6.125-.35,4.2-.175h.7a1.737,1.737,0,0,1,1.925,2.1l-.35,6.475-.35,7.35-.35,45.5q-.35,2.45.175,17.325v4.375q-.35,22.75-11.112,34.738t-32.112,11.987Q677.259,183.661,670.26,181.036Zm13.825-94.587q-2.45,3.938-2.45,14.088,0,10.325,3.237,13.912a11.649,11.649,0,0,0,17.062-.262v-11.2l.175-4.2.35-5.775-.35-5.775a22.481,22.481,0,0,0-3.85-3.412,8.511,8.511,0,0,0-4.9-1.313Q686.535,82.511,684.085,86.449ZM264.959,181.036q-7-2.624-8.487-3.937t-6.563-6.387q-1.05-1.05-.525-1.4a7.425,7.425,0,0,1,1.225-1.925l2.275-2.8q.875-1.226,3.15-4.026a1.681,1.681,0,0,1,1.225-.525,4.013,4.013,0,0,1,1.925.787,12.56,12.56,0,0,1,2.1,1.662q.176.175,2.012,1.663a16.807,16.807,0,0,0,5.338,2.624,24.786,24.786,0,0,0,7.7,1.138q10.676,0,15.313-6.125t4.638-17.675a25.388,25.388,0,0,1-8.05,2.713,56.25,56.25,0,0,1-10.5.962q-15.575,0-23.8-13.3t-8.224-33.425A100.751,100.751,0,0,1,247.9,82.074,50.547,50.547,0,0,1,257,61.6q6.913-9.362,19.688-9.363,12.076,0,20.3,6.125V56.086a4.218,4.218,0,0,1,.262-1.75q.263-.525,1.313-.526l15.224.526,6.125-.35,4.2-.175h.7a1.736,1.736,0,0,1,1.925,2.1l-.35,6.475-.349,7.35-.35,45.5q-.351,2.45.175,17.325v4.375q-.35,22.75-11.112,34.738t-32.113,11.987Q271.96,183.661,264.959,181.036Zm13.826-94.587q-2.45,3.938-2.451,14.088,0,10.325,3.238,13.912a11.649,11.649,0,0,0,17.062-.262v-11.2l.175-4.2.35-5.775-.35-5.775a22.51,22.51,0,0,0-3.849-3.412,8.511,8.511,0,0,0-4.9-1.313Q281.235,82.511,278.785,86.449ZM802.21,150.936q-7.525-6.826-7.525-23.45,0-16.274,10.062-22.749a52.249,52.249,0,0,1,23.013-7.875l8.225-1.05a92.141,92.141,0,0,1,12.424-1.225V92.311l-.875-9.1q-.875-8.4-3.5-11.112a9.52,9.52,0,0,0-7.175-2.713q-3.325,0-11.9,3.938a113.874,113.874,0,0,0-16.975,9.713,1.018,1.018,0,0,1-.7.175q-.7,0-1.575-1.225a18.026,18.026,0,0,1-2.275-5.775,14.649,14.649,0,0,0-1.488-3.675,7.638,7.638,0,0,1-1.138-3.15q0-1.05,2.1-2.45A156.883,156.883,0,0,1,819.1,57.311a50.918,50.918,0,0,1,11.112-4.2,49.387,49.387,0,0,1,10.675-1.05q18.725,0,27.475,12.95a24.093,24.093,0,0,1,2.8,5.774q1.05,3.151,1.838,6.038t.962,3.762a96.122,96.122,0,0,1,2.275,26.076q0,12.949-.35,19.075,0,3.675.7,11.025a105.265,105.265,0,0,1,.525,12.425l.175,2.1q0,4.024-3.15,4.025-2.1,0-8.051.35t-8.575.35a25.7,25.7,0,0,0-3.15.175,21.162,21.162,0,0,1-2.624.176,1.84,1.84,0,0,1-1.313-.613,2.026,2.026,0,0,1-.612-1.488l-.35-2.1a1.338,1.338,0,0,1-.263-.7,1.568,1.568,0,0,0-.437-.875q-9.8,7.175-25.9,7.175Q809.735,157.761,802.21,150.936Zm13.212-29.225q-6.737,2.8-7.262,11.9-.35,2.975,2.625,5.25t10.325,2.275a65.647,65.647,0,0,0,15.575-1.75,35.142,35.142,0,0,0,11.725-4.9l-.35-14q-5.949-1.05-9.013-1.313t-9.362-.262A36.8,36.8,0,0,0,815.422,121.712ZM470.585,152.686q-7.7-5.075-7.7-18.024.875-8.4,12.425-12.425a78.37,78.37,0,0,1,25.9-4.025,100.171,100.171,0,0,0,10.85-.7,105.359,105.359,0,0,1,11.55-.7,270.674,270.674,0,0,0-2.362-29.662q-1.662-10.762-5.6-16.187a12.926,12.926,0,0,0-11.112-5.425,21.383,21.383,0,0,0-9.975,2.45,88.918,88.918,0,0,0-11.725,7.7l-5.775,4.2a4.3,4.3,0,0,0-1.138.612,2.47,2.47,0,0,1-1.837.437q-1.575-.35-1.575-1.575a18.868,18.868,0,0,1-1.663-4.725,24.035,24.035,0,0,1-.962-5.25q0-1.05,2.1-2.45a117.567,117.567,0,0,1,15.138-9.887A41.213,41.213,0,0,1,497.8,52.936a54.668,54.668,0,0,1,10.412-.875q17.5,0,23.538,11.288t6.037,30.012q0,4.9-.35,13.3,0,5.075-.7,14.874l-.175,4.2.175,10.325q.35,7,.35,10.675l-.175,5.251q-.35,4.024-3.15,4.025l-1.4-.175h-7.176a1.838,1.838,0,0,1-1.312-.612,2.026,2.026,0,0,1-.613-1.488v-1.4q-10.5,2.974-16.8,4.2a82.2,82.2,0,0,1-15.4,1.225Q478.285,157.761,470.585,152.686Zm28.7-28a33.933,33.933,0,0,0-15.051,3.238q-6.65,3.237-7.175,9.012,0,6.3,2.975,8.575t11.2,2.275q18.725,0,32.025-6.3l.526-16.275q-8.226-.7-14.175-.7Zm-434,28q-7.7-5.075-7.7-18.024.875-8.4,12.424-12.425a78.376,78.376,0,0,1,25.9-4.025,100.185,100.185,0,0,0,10.85-.7,105.345,105.345,0,0,1,11.55-.7,271.138,271.138,0,0,0-2.362-29.662q-1.662-10.762-5.6-16.187a12.927,12.927,0,0,0-11.112-5.425,21.386,21.386,0,0,0-9.976,2.45,88.976,88.976,0,0,0-11.725,7.7l-5.774,4.2a4.3,4.3,0,0,0-1.138.612,2.472,2.472,0,0,1-1.838.437q-1.574-.35-1.575-1.575a18.917,18.917,0,0,1-1.662-4.725,24.035,24.035,0,0,1-.962-5.25q0-1.05,2.1-2.45a117.568,117.568,0,0,1,15.137-9.887A41.225,41.225,0,0,1,92.5,52.936a54.678,54.678,0,0,1,10.413-.875q17.5,0,23.538,11.288t6.037,30.012q0,4.9-.35,13.3,0,5.075-.7,14.874l-.175,4.2.175,10.325q.351,7,.35,10.675l-.175,5.251q-.35,4.024-3.15,4.025l-1.4-.175h-7.175a1.835,1.835,0,0,1-1.312-.612,2.026,2.026,0,0,1-.613-1.488v-1.4q-10.5,2.974-16.8,4.2a82.189,82.189,0,0,1-15.4,1.225Q72.984,157.761,65.284,152.686Zm28.7-28a33.932,33.932,0,0,0-15.05,3.238q-6.65,3.237-7.175,9.012,0,6.3,2.974,8.575t11.2,2.275q18.725,0,32.025-6.3l.525-16.275q-8.224-.7-14.175-.7Zm664.737,29.838a10.082,10.082,0,0,1-5.424-5.775,31.355,31.355,0,0,1-1.313-10.062l.176-11.2q.174-2.974.175-9.975l-.175-20.475q-.176-2.624-.176-5.6V57.487q0-6.3.176-9.8l.175-6.65V33.512q-.174-4.2.613-5.688a2.529,2.529,0,0,1,2.362-1.487,4.541,4.541,0,0,1,1.4.175,17.35,17.35,0,0,0,3.063.087q1.663-.088,3.063-.087h4.375q4.549,0,6.3.175a4.77,4.77,0,0,1,2.713.876,2.664,2.664,0,0,1,.788,2.1q0,.525-.35,4.025a248.864,248.864,0,0,0-1.4,31.85q-.174,3.15-.087,5.425t.087,3.85v4.725q.176,4.374.176,12.25l-.176,15.4.35,11.2q.176,4.2.35,9.626t.176,10.325v3.5q0,2.275,3.849,2.275a8.208,8.208,0,0,0,3.063-.526,6.011,6.011,0,0,1,1.838-.525q1.4,0,2.275,2.45a17.04,17.04,0,0,0,1.75,4.375.713.713,0,0,1,.175.526,2.418,2.418,0,0,1-.876,1.575,15.05,15.05,0,0,1-7,3.849,54.056,54.056,0,0,1-9.976.7Q762.835,156.536,758.722,154.524Zm-324.187-.087a9.684,9.684,0,0,1-4.549-5.863,39.6,39.6,0,0,1-1.05-10.238l.175-10.85.876-20.65.525-15.4V57.487q0-6.3.175-9.8l.176-6.65V33.512q-.176-4.2.612-5.688a2.531,2.531,0,0,1,2.362-1.487,4.547,4.547,0,0,1,1.4.175h.35q.35,0,1.225-.087a2.826,2.826,0,0,1,1.575.262q3.5.525,3.5,2.975,0,.525-.35,4.025a248.871,248.871,0,0,0-1.4,31.85v41.65l-.35,7.875q-.35,9.1-.349,14.175v3.5q0,5.6,2.45,8.312a8.306,8.306,0,0,0,6.475,2.713,18.248,18.248,0,0,0,3.326-.263,12.581,12.581,0,0,1,2.1-.263q1.925,0,1.925,2.625l1.049,7.175a11.411,11.411,0,0,1-4.9,2.888,29.608,29.608,0,0,1-6.825.612Q438.035,156.536,434.534,154.436Zm-405.3,0a9.688,9.688,0,0,1-4.55-5.863,39.61,39.61,0,0,1-1.049-10.238l.175-10.85.875-20.65.526-15.4V57.487q0-6.3.175-9.8l.175-6.65V33.512q-.174-4.2.613-5.688a2.529,2.529,0,0,1,2.362-1.487,4.547,4.547,0,0,1,1.4.175h.349c.234,0,.642-.029,1.226-.087a2.826,2.826,0,0,1,1.575.262q3.5.525,3.5,2.975,0,.525-.349,4.025a248.708,248.708,0,0,0-1.4,31.85v41.65l-.35,7.875q-.35,9.1-.35,14.175v3.5q0,5.6,2.45,8.312a8.307,8.307,0,0,0,6.475,2.713,18.238,18.238,0,0,0,3.325-.263,12.589,12.589,0,0,1,2.1-.263q1.925,0,1.925,2.625l1.049,7.175a11.416,11.416,0,0,1-4.9,2.888,29.611,29.611,0,0,1-6.826.612Q32.734,156.536,29.235,154.436Zm582.05,1.925a1.275,1.275,0,0,1-1.225-1.4v-.525l.175-2.975q-.525-7.349-.525-23.1,0-5.426.175-8.4l.176-10.149.175-10.5a39.086,39.086,0,0,0-.35-6.476q-1.049-6.3-4.287-9.362t-9.188-3.063a15.548,15.548,0,0,0-10.325,3.675q0,8.226.175,13.475v23.625q.525,14.175.526,21,0,9.274-.875,12.775,0,1.226-2.8,1.225-.7,0-3.587-.35a48.725,48.725,0,0,0-5.863-.349q-3.324,0-5.862.175t-3.937.175q-2.626,0-2.625-2.1a7.423,7.423,0,0,1,.087-.788,16.038,16.038,0,0,0,.087-2.012l-.35-13.475q-.7-27.3-.525-31.85a58.161,58.161,0,0,0,.175-5.95l-.175-14.525q-.35-12.25-.35-18.375,0-5.949.175-8.4l-.175-2.45q0-1.925.875-2.1,1.226,0,3.763.175t5.863.175q4.9,0,7.175-.175,1.4,0,2.887-.087a11.547,11.547,0,0,1,2.538.087,1.212,1.212,0,0,1,.962.612,1.9,1.9,0,0,1,.437.963l.175,2.1a42.16,42.16,0,0,1,10.325-4.638,38.037,38.037,0,0,1,11.2-1.837q8.049,0,13.037,2.1t9.362,8.225q7.7,9.45,7.7,39.55,0,7-.35,17.15l-.35,9.1q0,1.224.087,6.475t.088,17.5a5.777,5.777,0,0,0,.175,1.4,6.491,6.491,0,0,1,.176,1.575q0,1.226-1.751,1.4-2.275.176-11.55.175-2.45,0-6.65.35-2.567.234-3.967.234A8.275,8.275,0,0,1,611.284,156.362Zm-405.3,0a1.274,1.274,0,0,1-1.225-1.4v-.525l.175-2.975q-.525-7.349-.525-23.1,0-5.426.175-8.4l.175-10.149.175-10.5a39.191,39.191,0,0,0-.35-6.476q-1.05-6.3-4.288-9.362t-9.187-3.063a15.545,15.545,0,0,0-10.325,3.675q0,8.226.175,13.475v23.625q.525,14.175.525,21,0,9.274-.875,12.775,0,1.226-2.8,1.225-.7,0-3.587-.35a48.724,48.724,0,0,0-5.863-.349q-3.325,0-5.863.175t-3.937.175q-2.624,0-2.624-2.1a7.416,7.416,0,0,1,.087-.788,16.046,16.046,0,0,0,.087-2.012l-.35-13.475q-.7-27.3-.525-31.85a58.558,58.558,0,0,0,.175-5.95l-.175-14.525q-.351-12.25-.35-18.375,0-5.949.175-8.4l-.175-2.45q0-1.925.875-2.1,1.224,0,3.763.175t5.863.175q4.9,0,7.175-.175,1.4,0,2.887-.087a11.547,11.547,0,0,1,2.538.087,1.213,1.213,0,0,1,.962.612,1.9,1.9,0,0,1,.437.963l.176,2.1a42.129,42.129,0,0,1,10.325-4.638,38.027,38.027,0,0,1,11.2-1.837q8.05,0,13.037,2.1t9.363,8.225q7.7,9.45,7.7,39.55,0,7-.35,17.15l-.35,9.1q0,1.224.087,6.475t.087,17.5a5.734,5.734,0,0,0,.175,1.4,6.539,6.539,0,0,1,.175,1.575q0,1.226-1.75,1.4-2.275.176-11.551.175-2.449,0-6.649.35-2.567.234-3.967.234A8.273,8.273,0,0,1,205.985,156.362Zm752.674-.526q-1.224,0-1.575-.7a9.455,9.455,0,0,1-.35-3.326l.7-29.05.35-16.275.175-12.25q0-16.1-2.274-21a35.719,35.719,0,0,0-4.113-6.737,10.221,10.221,0,0,0-4.9-3.15,31.09,31.09,0,0,0-8.838-.963,40.092,40.092,0,0,0-14.612,2.975,53,53,0,0,0-12.513,6.65q0,13.824.176,24.15v24.15q.35,8.751.525,18.55t.176,14.175a2.667,2.667,0,0,1-.788,2.1,4.8,4.8,0,0,1-3.063.7h-5.95a1.841,1.841,0,0,1-1.488-.525,2.747,2.747,0,0,1-.437-1.75l-.175-9.8q-.875-34.125-.7-39.375V53.636q0-2.45,2.274-2.45h3.15l3.85.175q1.4,0,1.4,2.975l-.176,6.3,5.251-2.625A88.351,88.351,0,0,1,926.9,53.024a46.462,46.462,0,0,1,13.562-1.662A31.137,31.137,0,0,1,953.847,53.9a26.674,26.674,0,0,1,9.887,8.837q4.9,5.949,4.9,25.9l.175,30.45-.175,10.5q-.35,11.2-.349,16.45a44.478,44.478,0,0,0,.175,5.424q.35,1.751.35,1.925a2.061,2.061,0,0,1-.437,1.488,2.727,2.727,0,0,1-1.488.613,20.314,20.314,0,0,1-4.462.349Z" transform="translate(-23.135 -25.837)" stroke="rgba(0,0,0,0)" stroke-width="1" fill="url(#linear-gradient)"/>
</svg>
